<?xml version="1.0" encoding="utf-8"?>
<!-- Generator: Adobe Illustrator 23.0.0, SVG Export Plug-In . SVG Version: 6.00 Build 0)  -->
<svg version="1.1" id="Слой_1" xmlns="http://www.w3.org/2000/svg" xmlns:xlink="http://www.w3.org/1999/xlink" x="0px" y="0px"
	 viewBox="0 0 512 512" style="enable-background:new 0 0 512 512;" xml:space="preserve">
<style type="text/css">
	.st0{fill-rule:evenodd;clip-rule:evenodd;fill:#FC8100;}
</style>
<g>
	<path class="st0" d="M443.5,116.6c0,0-53.5-41.9-116.6-46.6l-5.7,11.4c57.1,14,83.3,34,110.6,58.6c-47.2-24.1-93.7-46.6-174.9-46.6
		s-127.7,22.5-174.9,46.6c27.4-24.6,58.5-46.8,110.6-58.6L187,70c-66.2,6.2-116.6,46.6-116.6,46.6s-59.7,86.6-70,256.5
		c60.2,69.4,151.6,70,151.6,70l19.1-25.5c-32.5-11.3-69.1-31.4-100.7-67.8c37.8,28.6,94.7,58.3,186.5,58.3s148.8-29.7,186.5-58.3
		c-31.7,36.4-68.3,56.5-100.7,67.8l19.1,25.5c0,0,91.4-0.5,151.6-70C503.3,203.2,443.5,116.6,443.5,116.6z M181.2,326.5
		c-22.5,0-40.8-20.9-40.8-46.6c0-25.8,18.3-46.6,40.8-46.6S222,254,222,279.8C222,305.6,203.8,326.5,181.2,326.5z M332.8,326.5
		c-22.5,0-40.8-20.9-40.8-46.6c0-25.8,18.3-46.6,40.8-46.6c22.5,0,40.8,20.9,40.8,46.6C373.6,305.6,355.3,326.5,332.8,326.5z"/>
</g>
</svg>
