<?xml version="1.0" encoding="utf-8"?>
<!-- Generator: Adobe Illustrator 23.0.0, SVG Export Plug-In . SVG Version: 6.00 Build 0)  -->
<svg version="1.1" id="Слой_1" xmlns="http://www.w3.org/2000/svg" xmlns:xlink="http://www.w3.org/1999/xlink" x="0px" y="0px"
	 viewBox="0 0 586 559" style="enable-background:new 0 0 586 559;" xml:space="preserve">
<style type="text/css">
	.st0{fill:#FC8100;}
	.st1{fill:#FFFFFF;}
</style>
<g id="g44">
	<path id="path46" class="st0" d="M582.9,318l-32.6-100.2L485.8,19c-2-5.8-8.3-9-14.1-7c-3.3,1.1-5.9,3.7-7,7l-64.5,198.6H185.8
		L121.3,19c-1.9-5.8-8.2-9-14.1-7.1c-3.3,1.1-5.9,3.7-7.1,7.1L35.7,217.7L3.1,318c-3,9.1,0.3,19.1,8,24.8L293,547.6l281.8-204.8
		C582.6,337.2,585.9,327.2,582.9,318"/>
</g>
<g id="g56">
	<path id="path58" class="st1" d="M293,547.4L185.8,217.7h-150L293,547.4z"/>
</g>
<g id="g64">
	<path id="path66" class="st0" d="M35.7,217.8L35.7,217.8L3.1,318c-3,9.1,0.3,19.1,8,24.8L293,547.6L35.7,217.8z"/>
</g>
<g id="g76">
	<path id="path78" class="st1" d="M293,547.4l107.2-329.8h150.2L293,547.4z"/>
</g>
<g id="g80">
	<path id="path82" class="st0" d="M550.3,217.8L550.3,217.8L582.9,318c3,9.1-0.3,19.2-8,24.8L293,547.4L550.3,217.8L550.3,217.8z"/>
</g>
<g id="g84">
	<path id="path86" class="st0" d="M550.4,217.8H400.2l64.5-198.6c1.9-5.8,8.2-9,14.1-7.1c3.3,1.1,5.9,3.7,7.1,7.1L550.4,217.8
		L550.4,217.8z"/>
</g>
</svg>
