<?xml version="1.0" encoding="utf-8"?>
<!-- Generator: Adobe Illustrator 23.0.0, SVG Export Plug-In . SVG Version: 6.00 Build 0)  -->
<svg version="1.1" id="Слой_1" xmlns="http://www.w3.org/2000/svg" xmlns:xlink="http://www.w3.org/1999/xlink" x="0px" y="0px"
	 viewBox="0 0 256 256" style="enable-background:new 0 0 256 256;" xml:space="preserve">
<style type="text/css">
	.st0{fill:#FC8100;}
</style>
<path class="st0" d="M33.2,68.5c0.3-3-0.8-6-3.1-8L7.3,32.9v-4.1h71l54.9,120.4l48.3-120.4h67.7v4.1l-19.6,18.8
	c-1.7,1.3-2.5,3.4-2.2,5.5v137.8c-0.3,2.1,0.5,4.2,2.2,5.5l19.1,18.8v4.1h-96.1v-4.1l19.8-19.2c1.9-1.9,1.9-2.5,1.9-5.5V83.1
	l-55,139.7h-7.4L47.9,83.1v93.6c-0.5,3.9,0.8,7.9,3.5,10.7l25.7,31.2v4.1h-73v-4.1l25.7-31.2c2.8-2.9,4-6.8,3.3-10.7V68.5z"/>
</svg>
