<?xml version="1.0" encoding="utf-8"?>
<!-- Generator: Adobe Illustrator 23.0.0, SVG Export Plug-In . SVG Version: 6.00 Build 0)  -->
<svg version="1.1" id="Слой_1" xmlns="http://www.w3.org/2000/svg" xmlns:xlink="http://www.w3.org/1999/xlink" x="0px" y="0px"
	 viewBox="0 0 512 512" style="enable-background:new 0 0 512 512;" xml:space="preserve">
<style type="text/css">
	.st0{fill:#FC8100;}
</style>
<path class="st0" d="M32.2,309c-1.3,7.2-2.2,14.5-2.2,22c0,91,102.9,165,227,165s225-74,225-165c0-7.5-0.9-14.8-2.2-22
	c19.5-10.1,32.2-30.2,32.2-53c0-33.1-26.9-60-60-60c-15.1,0-29.3,5.7-40.2,15.6c-37.7-26.3-87.7-43-143-45.1l28.7-111.3l64.7,22.6
	C363.1,110,389.5,136,422,136c33.1,0,60-26.9,60-60s-26.9-60-60-60c-23.1,0-42.9,13.2-52.9,32.4L276.6,16l-38.9,150.7
	c-52.3,3.3-101.5,19.7-137.5,44.8C89.3,201.7,75.1,196,60,196c-33.1,0-60,26.9-60,60C0,278.8,12.8,298.9,32.2,309z M347,256
	c24.8,0,45,20.2,45,45s-20.2,45-45,45s-45-20.2-45-45S322.2,256,347,256z M340.6,388.5l12.8,27.1C325.3,429,291.9,436,257,436
	s-70.3-7-98.4-20.4l12.8-27.1C219.8,411.4,292.2,411.4,340.6,388.5z M165,256c24.8,0,45,20.2,45,45s-20.2,45-45,45s-45-20.2-45-45
	S140.2,256,165,256z"/>
</svg>
