<?xml version="1.0" encoding="utf-8"?>
<!-- Generator: Adobe Illustrator 23.0.0, SVG Export Plug-In . SVG Version: 6.00 Build 0)  -->
<svg version="1.1" id="Слой_1" xmlns="http://www.w3.org/2000/svg" xmlns:xlink="http://www.w3.org/1999/xlink" x="0px" y="0px"
	 viewBox="0 0 240 240" style="enable-background:new 0 0 240 240;" xml:space="preserve">
<style type="text/css">
	.st0{fill:#FC8100;}
</style>
<path class="st0" d="M14.6,107.8L151,51.6c13.5-5.9,59.1-24.6,59.1-24.6s21.1-8.2,19.3,11.7c-0.6,8.2-5.3,36.9-10,67.9l-14.6,91.9
	c0,0-1.2,13.5-11.1,15.8c-10,2.3-26.3-8.2-29.3-10.5c-2.3-1.8-43.9-28.1-59.1-41c-4.1-3.5-8.8-10.5,0.6-18.7
	c21.1-19.3,46.2-43.3,61.5-58.5c7-7,14.1-23.4-15.2-3.5l-82.5,55.6c0,0-9.4,5.9-26.9,0.6C25.1,133,4.6,125.9,4.6,125.9
	S-9.5,117.2,14.6,107.8L14.6,107.8z"/>
</svg>
