<?xml version="1.0" encoding="utf-8"?>
<!-- Generator: Adobe Illustrator 23.0.0, SVG Export Plug-In . SVG Version: 6.00 Build 0)  -->
<svg version="1.1" id="Слой_1" xmlns="http://www.w3.org/2000/svg" xmlns:xlink="http://www.w3.org/1999/xlink" x="0px" y="0px"
	 viewBox="0 0 512 512" style="enable-background:new 0 0 512 512;" xml:space="preserve">
<style type="text/css">
	.st0{fill-rule:evenodd;clip-rule:evenodd;fill:#FFB506;}
</style>
<g>
	<path class="st0" d="M510.4,99.3c-18.6,8.3-38.7,13.9-59.8,16.4c21.5-12.9,38-33.3,45.7-57.6C476.3,70,454,78.7,430.4,83.4
		c-19-20.2-46-32.8-75.9-32.8c-57.4,0-104,46.6-104,104c0,8.1,0.9,16.1,2.7,23.7c-86.4-4.3-163.1-45.8-214.4-108.7
		c-9,15.4-14.1,33.3-14.1,52.4c0,36.1,18.4,67.9,46.3,86.5c-17.1-0.6-33.1-5.2-47.1-13c0,0.5,0,0.8,0,1.3c0,50.4,35.8,92.4,83.4,102
		c-8.7,2.4-17.9,3.7-27.4,3.7c-6.8,0-13.2-0.6-19.6-1.8c13.2,41.3,51.6,71.5,97.1,72.2c-35.5,27.9-80.4,44.5-129.2,44.5
		c-8.4,0-16.6-0.5-24.8-1.4c46,29.5,100.7,46.7,159.4,46.7c191.3,0,295.9-158.5,295.9-295.9c0-4.6-0.1-9.1-0.3-13.6
		C478.9,138.5,496.5,120.2,510.4,99.3"/>
</g>
</svg>
